<svg id="Vrstva_1" data-name="Vrstva 1" xmlns="http://www.w3.org/2000/svg" viewBox="0 0 282.23 283.09"><defs><style>.cls-1{fill:#f0e7db;}.cls-2{fill:#1d1d1b;}.cls-3{fill:none;stroke:#1d1d1b;stroke-miterlimit:10;stroke-width:0.25px;}.cls-4{fill:#e6f0db;}</style></defs><rect class="cls-1" width="282.23" height="283.09"/><path class="cls-2" d="M231.84,97.77s-20-4.59-13-16.36,16.35-3.57,16.35-3.57,8.65,6.88,6.31,11.76S231.84,97.77,231.84,97.77Z" transform="translate(0 0)"/><path class="cls-2" d="M39,220.05s46.32,23.2,83.21,27.85a126.61,126.61,0,0,0,64.31-8.36l-3.78-6.5-46.35,7.33Z" transform="translate(0 0)"/><path class="cls-2" d="M53.17,195.89s11.34,4.64,18.9-2.78,28.39-23.21,28.39-23.21,12.29-8.35,9.45-21.35-34-21.37-34-21.37-20.8-12.07-45.38,3.71,6.62,60.36,6.62,60.36S50.23,194.89,53.17,195.89Z" transform="translate(0 0)"/><path d="M214.11,101.51s-16-11.47-1.47-29.41,31.86,14,31.86,14S240.27,103.05,214.11,101.51Z" transform="translate(0 0)"/><path class="cls-3" d="M22,168" transform="translate(0 0)"/><path d="M102.06,74s-9.35,15.69-18.2,3.48S83,46.81,83,46.81s11.1-5,18,2.62S102.06,74,102.06,74Z" transform="translate(0 0)"/><path class="cls-2" d="M110.07,61.81a12.69,12.69,0,0,0-2.34-6.88,64,64,0,0,0-6.77-5.5s-6.82-4.25-11-4.25a15.33,15.33,0,0,0-7,1.63l-7.31,7.37s-2.66,1-1.85-2.78,12-11.77,12-11.77a16,16,0,0,1,14.48.62c7.83,4.25,8,10.46,8,10.46l4.49,4.59A9.6,9.6,0,0,1,110.07,61.81Z" transform="translate(0 0)"/><path class="cls-2" d="M102.62,51.72s-6.5-1.31-8.83,2.14-5.33,6.53-4.49,10.62a19.21,19.21,0,0,0,5.33,8.16l7,3.12,7.15-10.28" transform="translate(0 0)"/><path class="cls-2" d="M201.21,104s-16.35-6.54-16.65-12.09,18.68-23.55,18.68-23.55,2.67-8.84,25,0c0,0,12.66,10.13,16.35,17.66l9.65-1.63s-13.65-20.65-24-22.57-13.67-2.3-13.67-2.3S203.94,60.86,191.94,73a173,173,0,0,0-14.3,15.37L183,96.83a2.44,2.44,0,0,0,1.25,3.25l.08,0C186.63,101.1,203,107,203,107Z" transform="translate(0 0)"/><path class="cls-1" d="M24.69,168.51s10-1.39,13.7-.46S21,154.59,21,154.59,22.32,166.19,24.69,168.51Z" transform="translate(0 0)"/><path class="cls-1" d="M91.83,176.86s-12.29-1.85-14.18-5.1a48.69,48.69,0,0,0-3.78-5.57s16.54,7.89,19.9,7.89S91.83,176.86,91.83,176.86Z" transform="translate(0 0)"/><path class="cls-1" d="M101.61,54.38s-4.44,4.38-1.33,6.13,5.77-4.38,5.77-4.38a2.7,2.7,0,0,0-3-2.36A2.76,2.76,0,0,0,101.61,54.38Z" transform="translate(0 0)"/><path class="cls-1" d="M212.64,72.1l4-3.49s4.88,4.36,2.22,9.18S212.64,72.1,212.64,72.1Z" transform="translate(0 0)"/><path class="cls-1" d="M89.63,54.82l-4.44,3s1.33-6.1,2.66-6.1a14.94,14.94,0,0,1,4.44,1.74Z" transform="translate(0 0)"/><path class="cls-4" d="M212.64,72.1l4-3.49s4.44,4.36,2.22,7.85S212.64,72.1,212.64,72.1Z" transform="translate(0 0)"/><path class="cls-4" d="M-73.55-41.9" transform="translate(0 0)"/><path class="cls-2" d="M176.59,89.24a12.52,12.52,0,0,0,5.35,9.91,5.06,5.06,0,0,0,4.46,0,4.3,4.3,0,0,0,1.82-1.2c.24-.34.49-.91,0-1.21A12.23,12.23,0,0,1,185,93.37l.21.36a12,12,0,0,1-1.9-6.21c0-.49-.95-.74-1.26-.78a6.51,6.51,0,0,0-2.52.2c-1.1.32-3,1-3,2.3Z" transform="translate(0 0)"/></svg>